<?xml version="1.0" encoding="UTF-8"?>
<svg width="120" height="120" viewBox="0 0 120 120" fill="none" xmlns="http://www.w3.org/2000/svg">
  <!-- 背景圆形 -->
  <circle cx="60" cy="60" r="60" fill="#3B82F6" fill-opacity="0.1"/>
  <circle cx="60" cy="60" r="48" fill="#3B82F6" fill-opacity="0.2"/>
  
  <!-- 地震波纹动画效果 -->
  <path d="M60 20C82.0914 20 100 37.9086 100 60C100 82.0914 82.0914 100 60 100" 
        stroke="#3B82F6" 
        stroke-width="4" 
        stroke-linecap="round"
        stroke-dasharray="4 6"/>
  
  <path d="M60 32C75.464 32 88 44.536 88 60C88 75.464 75.464 88 60 88" 
        stroke="#3B82F6" 
        stroke-width="4" 
        stroke-linecap="round"
        stroke-dasharray="4 6"/>
  
  <!-- 中心图标 -->
  <circle cx="60" cy="60" r="24" fill="#3B82F6"/>
  
  <!-- 警报标志 -->
  <path d="M60 44L68 64H52L60 44Z" 
        fill="white"/>
  <circle cx="60" cy="68" r="2" fill="white"/>
  
  <!-- 装饰线条 -->
  <line x1="30" y1="60" x2="42" y2="60" 
        stroke="#3B82F6" 
        stroke-width="4" 
        stroke-linecap="round"/>
  <line x1="78" y1="60" x2="90" y2="60" 
        stroke="#3B82F6" 
        stroke-width="4" 
        stroke-linecap="round"/>
  
  <!-- 底部文字背景 -->
  <rect x="36" y="80" width="48" height="16" rx="8" fill="#3B82F6"/>
  
  <!-- 底部文字 -->
  <text x="60" y="92" 
        font-family="Arial, sans-serif" 
        font-size="10" 
        fill="white" 
        text-anchor="middle" 
        dominant-baseline="middle">预警</text>
</svg> 